<?xml version="1.0" encoding="UTF-8"?>
<!DOCTYPE svg PUBLIC "-//W3C//DTD SVG 1.1//EN" "http://www.w3.org/Graphics/SVG/1.1/DTD/svg11.dtd">
<svg xmlns="http://www.w3.org/2000/svg" version="1.1" width="512px" height="512px" style="shape-rendering:geometricPrecision; text-rendering:geometricPrecision; image-rendering:optimizeQuality; fill-rule:evenodd; clip-rule:evenodd" xmlns:xlink="http://www.w3.org/1999/xlink">
<g><path style="opacity:0.978" fill="#552536" d="M 231.5,35.5 C 293.695,31.7962 350.695,46.9629 402.5,81C 479.472,138.897 507.638,215.064 487,309.5C 469.222,367.941 433.722,412.108 380.5,442C 328.124,469.541 272.457,479.874 213.5,473C 136.094,462.738 78.5945,423.571 41,355.5C 7.85816,286.847 8.52483,218.514 43,150.5C 85.1412,78.6617 147.975,40.3283 231.5,35.5 Z"/></g>
<g><path style="opacity:0.998" fill="#fddc4f" d="M 219.5,46.5 C 291.691,43.359 351.191,69.0256 398,123.5C 442.953,182.529 454.953,247.862 434,319.5C 404.237,402.917 345.403,450.75 257.5,463C 183.997,463.822 122.83,436.989 74,382.5C 23.5554,317.627 13.8887,246.961 45,170.5C 80.864,97.8055 139.031,56.4722 219.5,46.5 Z"/></g>
<g><path style="opacity:0.992" fill="#e3ad14" d="M 50.5,62.5 C 52.3713,66.8662 53.038,71.5329 52.5,76.5C 56.5,76.5 60.5,76.5 64.5,76.5C 66.2681,79.1625 66.9347,82.1625 66.5,85.5C 66.0825,86.2216 65.4158,86.7216 64.5,87C 60.8484,87.4986 57.1817,87.6653 53.5,87.5C 52.7173,91.6934 52.0506,96.0268 51.5,100.5C 48.5308,102.006 45.6975,101.673 43,99.5C 42.5012,95.5138 42.3345,91.5138 42.5,87.5C 38.4862,87.6655 34.4862,87.4988 30.5,87C 28.327,84.3025 27.9937,81.4692 29.5,78.5C 34.0704,77.559 38.737,77.2256 43.5,77.5C 43.5,73.1667 43.5,68.8333 43.5,64.5C 43.5774,63.2502 44.244,62.4169 45.5,62C 47.3869,61.2204 49.0536,61.3871 50.5,62.5 Z"/></g>
<g><path style="opacity:0.992" fill="#e2ab17" d="M 340.5,63.5 C 340.735,62.9033 341.235,62.5699 342,62.5C 355.506,67.3317 368.34,73.4983 380.5,81C 376.5,81.6667 372.5,81.6667 368.5,81C 359.643,74.4049 350.31,68.5715 340.5,63.5 Z"/></g>
<g><path style="opacity:0.82" fill="#2a2006" d="M 50.5,62.5 C 51.4959,62.4142 52.3292,62.7476 53,63.5C 53.4988,67.4862 53.6655,71.4862 53.5,75.5C 57.3714,75.185 61.0381,75.5184 64.5,76.5C 60.5,76.5 56.5,76.5 52.5,76.5C 53.038,71.5329 52.3713,66.8662 50.5,62.5 Z"/></g>
<g><path style="opacity:1" fill="#6c5211" d="M 43.5,64.5 C 43.5,68.8333 43.5,73.1667 43.5,77.5C 38.737,77.2256 34.0704,77.559 29.5,78.5C 29.5774,77.2502 30.244,76.4169 31.5,76C 35.1516,75.5014 38.8183,75.3347 42.5,75.5C 42.185,71.6286 42.5184,67.9619 43.5,64.5 Z"/></g>
<g><path style="opacity:0.996" fill="#562637" d="M 222.5,76.5 C 285.623,74.1568 337.123,97.1568 377,145.5C 419.667,204.186 426.333,266.853 397,333.5C 357.425,405.716 296.258,438.883 213.5,433C 140.986,420.682 91.8191,380.182 66,311.5C 44.9741,235.407 63.4741,170.907 121.5,118C 151.11,94.2966 184.777,80.4633 222.5,76.5 Z"/></g>
<g><path style="opacity:0.933" fill="#372a0c" d="M 64.5,76.5 C 65.4959,76.4142 66.3292,76.7476 67,77.5C 69.0223,80.396 68.8556,83.0627 66.5,85.5C 66.9347,82.1625 66.2681,79.1625 64.5,76.5 Z"/></g>
<g><path style="opacity:0.817" fill="#433308" d="M 53.5,87.5 C 53.6655,91.5138 53.4988,95.5138 53,99.5C 52.6174,100.056 52.1174,100.389 51.5,100.5C 52.0506,96.0268 52.7173,91.6934 53.5,87.5 Z"/></g>
<g><path style="opacity:1" fill="#e9b115" d="M 216.5,87.5 C 287.543,83.105 342.376,110.438 381,169.5C 411.954,225.964 412.287,282.631 382,339.5C 343.724,400.056 288.557,427.889 216.5,423C 146.722,411.549 99.5551,372.716 75,306.5C 56.1422,236.748 72.9756,177.248 125.5,128C 152.098,106.08 182.431,92.5796 216.5,87.5 Z"/></g>
<g><path style="opacity:0.999" fill="#e4ac17" d="M 382.5,91.5 C 387.511,91.3341 392.511,91.5007 397.5,92C 407.933,99.5984 417.6,108.098 426.5,117.5C 419.858,118.664 413.192,118.831 406.5,118C 398.953,108.627 390.953,99.7933 382.5,91.5 Z"/></g>
<g><path style="opacity:0.994" fill="#562638" d="M 231.5,115.5 C 243.55,114.939 251.716,120.272 256,131.5C 256.333,137.167 256.667,142.833 257,148.5C 287.799,161.288 302.133,184.288 300,217.5C 293.207,230.741 283.04,234.241 269.5,228C 267,226.167 264.833,224 263,221.5C 261.36,213.754 259.36,206.088 257,198.5C 246.809,185.529 234.643,183.363 220.5,192C 213.185,198.618 210.685,206.784 213,216.5C 215.465,225.631 221.298,231.465 230.5,234C 269.439,235.035 292.939,254.535 301,292.5C 302.17,325.514 287.67,348.514 257.5,361.5C 256.67,367.138 256.17,372.804 256,378.5C 249.856,393.656 239.356,397.822 224.5,391C 220.072,387.908 217.239,383.741 216,378.5C 215.83,372.804 215.33,367.138 214.5,361.5C 184.542,348.708 170.376,326.041 172,293.5C 178.789,279.237 189.289,275.737 203.5,283C 205.333,284.833 207.167,286.667 209,288.5C 211.454,296.059 213.454,303.726 215,311.5C 224.524,324.51 236.357,327.01 250.5,319C 260.702,308.729 262.202,297.229 255,284.5C 250.931,279.715 245.764,276.881 239.5,276C 203.216,274.788 180.716,256.622 172,221.5C 168.602,186.618 182.935,162.285 215,148.5C 212.111,132.942 217.611,121.942 231.5,115.5 Z"/></g>
<g><path style="opacity:0.996" fill="#fdfcfc" d="M 232.5,126.5 C 237.74,125.538 241.907,127.205 245,131.5C 246.135,139.779 246.969,148.112 247.5,156.5C 260.63,160.479 271.463,167.812 280,178.5C 288.423,189.439 291.756,201.772 290,215.5C 284.445,223.074 278.445,223.408 272,216.5C 271.167,193.005 259.167,179.671 236,176.5C 219.781,178.064 208.781,186.398 203,201.5C 198.769,220.812 205.603,234.645 223.5,243C 233.135,244.786 242.802,246.453 252.5,248C 280.612,258.815 293.112,279.315 290,309.5C 287.489,323.026 280.989,334.192 270.5,343C 263,347.833 255.167,351.999 247,355.5C 246.667,362.5 246.333,369.5 246,376.5C 242.988,383.728 237.821,385.895 230.5,383C 228.383,381.269 226.883,379.102 226,376.5C 225.667,369.167 225.333,361.833 225,354.5C 196.458,345.633 182.124,326.3 182,296.5C 185.821,289.218 191.321,287.718 198.5,292C 199.46,293.419 200.293,294.919 201,296.5C 201.94,319.105 213.607,331.771 236,334.5C 263.434,329.725 274.101,313.725 268,286.5C 263.833,278.333 257.667,272.167 249.5,268C 239.548,266.201 229.548,264.534 219.5,263C 191.834,251.848 179.334,231.348 182,201.5C 185.02,188.292 191.52,177.125 201.5,168C 209,163.167 216.833,159.001 225,155.5C 225.098,147.423 225.765,139.423 227,131.5C 228.73,129.598 230.563,127.931 232.5,126.5 Z"/></g>
<g><path style="opacity:1" fill="#e8b015" d="M 414.5,129.5 C 422.01,128.18 429.677,128.18 437.5,129.5C 442.411,135.655 447.077,141.989 451.5,148.5C 443.521,149.665 435.521,149.832 427.5,149C 423.515,142.176 419.182,135.676 414.5,129.5 Z"/></g>
<g><path style="opacity:0.997" fill="#e6ae16" d="M 433.5,159.5 C 441.84,159.334 450.173,159.5 458.5,160C 463.172,168.184 467.172,176.684 470.5,185.5C 461.525,186.498 452.525,186.832 443.5,186.5C 440.563,177.358 437.23,168.358 433.5,159.5 Z"/></g>
<g><path style="opacity:1" fill="#e8b015" d="M 446.5,197.5 C 455.657,196.342 464.991,196.176 474.5,197C 476.71,203.004 478.376,209.171 479.5,215.5C 469.833,215.5 460.167,215.5 450.5,215.5C 450.225,209.146 448.892,203.146 446.5,197.5 Z"/></g>
<g><path style="opacity:0.776" fill="#a97423" d="M 481.5,226.5 C 471.773,225.861 462.44,226.528 453.5,228.5C 452.596,227.791 452.263,226.791 452.5,225.5C 462.348,225.173 472.014,225.506 481.5,226.5 Z"/></g>
<g><path style="opacity:1" fill="#e8b015" d="M 481.5,226.5 C 483.078,235.085 483.745,243.751 483.5,252.5C 473.833,252.5 464.167,252.5 454.5,252.5C 454.432,244.486 454.099,236.486 453.5,228.5C 462.44,226.528 471.773,225.861 481.5,226.5 Z"/></g>
<g><path style="opacity:1" fill="#e7af15" d="M 454.5,262.5 C 464.167,262.5 473.833,262.5 483.5,262.5C 483.126,269.532 482.459,276.532 481.5,283.5C 472.167,283.5 462.833,283.5 453.5,283.5C 454.29,276.529 454.623,269.529 454.5,262.5 Z"/></g>
<g><path style="opacity:0.999" fill="#e8b015" d="M 451.5,293.5 C 460.833,293.5 470.167,293.5 479.5,293.5C 478.178,302.289 475.845,310.789 472.5,319C 463.506,319.5 454.506,319.666 445.5,319.5C 447.501,310.829 449.501,302.163 451.5,293.5 Z"/></g>
<g><path style="opacity:0.997" fill="#e6ae16" d="M 441.5,330.5 C 450.506,330.334 459.506,330.5 468.5,331C 465.438,337.791 462.105,344.457 458.5,351C 450.147,351.832 441.813,351.665 433.5,350.5C 436.733,344.037 439.4,337.371 441.5,330.5 Z"/></g>
<g><path style="opacity:1" fill="#e7b015" d="M 427.5,361.5 C 435.528,361.169 443.528,361.502 451.5,362.5C 447.077,369.011 442.411,375.345 437.5,381.5C 429.855,382.665 422.188,382.831 414.5,382C 419.219,375.392 423.552,368.559 427.5,361.5 Z"/></g>
<g><path style="opacity:0.99" fill="#e6ae16" d="M 406.5,392.5 C 413.175,392.334 419.842,392.5 426.5,393C 418.111,402.389 408.778,410.722 398.5,418C 393.167,418.667 387.833,418.667 382.5,418C 391.071,409.932 399.071,401.432 406.5,392.5 Z"/></g>
<g><path style="opacity:0.753" fill="#7e4c2d" d="M 368.5,429.5 C 372.646,428.353 376.98,428.186 381.5,429C 380.956,429.717 380.289,430.217 379.5,430.5C 376.038,429.518 372.371,429.185 368.5,429.5 Z"/></g>
<g><path style="opacity:0.991" fill="#e0a819" d="M 368.5,429.5 C 372.371,429.185 376.038,429.518 379.5,430.5C 365.632,438.937 350.965,445.437 335.5,450C 347.199,444.158 358.199,437.324 368.5,429.5 Z"/></g>
<g><path style="opacity:1" fill="#dfa914" d="M 401.5,451.5 C 405.5,451.5 409.5,451.5 413.5,451.5C 413.5,447.5 413.5,443.5 413.5,439.5C 414.286,437.265 415.952,436.265 418.5,436.5C 420.374,436.39 421.874,437.056 423,438.5C 423.499,442.486 423.666,446.486 423.5,450.5C 427.514,450.334 431.514,450.501 435.5,451C 438.936,454.06 439.269,457.393 436.5,461C 432.179,461.499 427.846,461.666 423.5,461.5C 423.666,465.846 423.499,470.179 423,474.5C 418.869,477.563 415.535,476.897 413,472.5C 412.501,468.848 412.335,465.182 412.5,461.5C 408.486,461.666 404.486,461.499 400.5,461C 398.271,458.447 397.938,455.614 399.5,452.5C 399.957,451.702 400.624,451.369 401.5,451.5 Z"/></g>
<g><path style="opacity:0.639" fill="#8f6c0c" d="M 413.5,439.5 C 413.5,443.5 413.5,447.5 413.5,451.5C 409.5,451.5 405.5,451.5 401.5,451.5C 404.962,450.518 408.629,450.185 412.5,450.5C 412.185,446.629 412.518,442.962 413.5,439.5 Z"/></g>
</svg>
